<?xml version="1.0" standalone="no"?>
<svg xmlns:xlink="http://www.w3.org/1999/xlink" id="wave" style="transform:rotate(180deg); transition: 0.3s" viewBox="0 0 1440 400" version="1.1" xmlns="http://www.w3.org/2000/svg"><defs><linearGradient id="sw-gradient-0" x1="0" x2="0" y1="1" y2="0"><stop stop-color="rgba(237.644, 255, 248.826, 1)" offset="0%"/><stop stop-color="rgba(11, 176.472, 255, 1)" offset="100%"/></linearGradient></defs><path style="transform:translate(0, 0px); opacity:1" fill="url(#sw-gradient-0)" d="M0,200L60,173.3C120,147,240,93,360,86.7C480,80,600,120,720,153.3C840,187,960,213,1080,226.7C1200,240,1320,240,1440,213.3C1560,187,1680,133,1800,133.3C1920,133,2040,187,2160,226.7C2280,267,2400,293,2520,273.3C2640,253,2760,187,2880,173.3C3000,160,3120,200,3240,186.7C3360,173,3480,107,3600,80C3720,53,3840,67,3960,113.3C4080,160,4200,240,4320,240C4440,240,4560,160,4680,120C4800,80,4920,80,5040,120C5160,160,5280,240,5400,246.7C5520,253,5640,187,5760,173.3C5880,160,6000,200,6120,186.7C6240,173,6360,107,6480,113.3C6600,120,6720,200,6840,213.3C6960,227,7080,173,7200,180C7320,187,7440,253,7560,253.3C7680,253,7800,187,7920,193.3C8040,200,8160,280,8280,273.3C8400,267,8520,173,8580,126.7L8640,80L8640,400L8580,400C8520,400,8400,400,8280,400C8160,400,8040,400,7920,400C7800,400,7680,400,7560,400C7440,400,7320,400,7200,400C7080,400,6960,400,6840,400C6720,400,6600,400,6480,400C6360,400,6240,400,6120,400C6000,400,5880,400,5760,400C5640,400,5520,400,5400,400C5280,400,5160,400,5040,400C4920,400,4800,400,4680,400C4560,400,4440,400,4320,400C4200,400,4080,400,3960,400C3840,400,3720,400,3600,400C3480,400,3360,400,3240,400C3120,400,3000,400,2880,400C2760,400,2640,400,2520,400C2400,400,2280,400,2160,400C2040,400,1920,400,1800,400C1680,400,1560,400,1440,400C1320,400,1200,400,1080,400C960,400,840,400,720,400C600,400,480,400,360,400C240,400,120,400,60,400L0,400Z"/></svg>